#!OML:ASF E:\Steps\Project 1\Capture day 1\Session 2\Subject.ASF
:FULLY-SPECIFIED
:DEGREES
262
root 9.01149 15.8947 32.0718 -135.238 -3.38313 179.19
lowerback -17.5612 -1.7382 -2.49747
upperback -0.00656269 -1.99898 0.706366
thorax 9.98718 -1.15106 1.6623
lowerneck -2.38508 -3.80565 0.110687
upperneck -14.6869 -3.69962 3.93952
head -4.333 -1.54087 1.37927
rclavicle -8.15017e-015 -1.98785e-016
rhumerus -57.5631 -22.1408 -51.661
rradius 15.0843
rwrist 24.6407
rhand -7.71755 -50.0821
rfingers 7.12502
rthumb 18.1806 -79.2525
lclavicle -8.15017e-015 -1.98785e-016
lhumerus -52.0776 -10.8043 76.6214
lradius 24.4975
lwrist -0.768204
lhand -21.8085 -13.1594
lfingers 7.12502
lthumb 4.5937 16.7708
rfemur -58.925 7.60795 15.8125
rtibia 31.4517
rfoot -28.7155 -13.5378
rtoes -35.1257
lfemur -61.8286 -8.68357 -13.801
ltibia 35.1375
lfoot -19.2162 3.63142
ltoes -37.8984
263
root 9.00683 15.8424 32.0897 -134.646 -3.21751 179.199
lowerback -17.023 -1.76383 -2.3985
upperback -0.00669361 -2.05791 0.695909
thorax 9.68172 -1.16898 1.59253
lowerneck -2.66346 -3.8855 0.180671
upperneck -14.7347 -3.80525 3.81599
head -4.2982 -1.58013 1.32209
rclavicle 7.55382e-015 -8.34896e-015
rhumerus -58.4925 -21.8816 -50.8929
rradius 15.0871
rwrist 24.9696
rhand -7.68091 -50.0003
rfingers 7.12502
rthumb 18.2158 -79.1673
lclavicle 7.55382e-015 -8.34896e-015
lhumerus -53.4102 -10.4427 76.6403
lradius 24.8644
lwrist -0.718667
lhand -21.4021 -12.4116
lfingers 7.12502
lthumb 4.98614 17.5097
rfemur -60.5262 7.53277 15.7062
rtibia 32.9592
rfoot -29.2381 -13.4013
rtoes -34.6793
lfemur -63.1613 -8.23441 -14.0709
ltibia 36.4005
lfoot -19.5313 3.40628
ltoes -38.6381
264
root 9.00306 15.7857 32.1055 -134.07 -3.13543 179.302
lowerback -16.4835 -1.74644 -2.22219
upperback -0.0518752 -2.08014 0.725121
thorax 9.32266 -1.16766 1.53254
lowerneck -2.75676 -3.93521 0.202832
upperneck -14.7912 -3.87989 3.69241
head -4.30217 -1.6083 1.27736
rclavicle 8.74653e-015 -5.96354e-015
rhumerus -59.6193 -21.7276 -49.8325
rradius 15.0624
rwrist 25.4716
rhand -7.31582 -50.3193
rfingers 7.12502
rthumb 18.5671 -79.4532
lclavicle 8.74653e-015 -5.96354e-015
lhumerus -54.8342 -10.2444 76.8076
lradius 25.2105
lwrist -0.642542
lhand -22.1349 -13.0365
lfingers 7.12502
lthumb 4.27847 16.9003
rfemur -61.7755 7.02005 16.1834
rtibia 34.1296
rfoot -29.482 -13.1221
rtoes -35.5711
lfemur -64.5079 -7.80741 -14.16
ltibia 37.6376
lfoot -19.8415 3.29892
ltoes -39.4045
265
root 8.98624 15.7428 32.1131 -133.829 -2.72204 178.911
lowerback -15.5999 -1.78023 -2.4848
upperback 0.017657 -2.06481 0.527358
thorax 8.90061 -1.15954 1.49337
lowerneck -2.68218 -4.06603 0.347123
upperneck -15.0022 -4.05018 3.58851
head -4.39626 -1.69033 1.22799
rclavicle 3.97569e-016 5.36719e-015
rhumerus -60.6674 -21.3677 -49.1866
rradius 15.1585
rwrist 25.4522
rhand -6.63634 -50.9502
rfingers 7.12502
rthumb 19.2205 -80.0204
lclavicle 3.97569e-016 5.36719e-015
lhumerus -56.1492 -10.1059 76.9275
lradius 25.5306
lwrist -0.365516
lhand -22.3574 -13.1984
lfingers 7.12502
lthumb 4.06362 16.7426
rfemur -62.7059 6.46281 15.9032
rtibia 35.4211
rfoot -29.783 -13.1055
rtoes -36.6825
lfemur -65.1916 -7.85924 -14.9209
ltibia 38.5113
lfoot -20.1403 3.21405
ltoes -39.4884
266
root 8.98471 15.678 32.1263 -133.349 -2.49482 178.859
lowerback -15.0987 -1.77651 -2.55947
upperback 0.129618 -2.0442 0.497496
thorax 8.73994 -1.14728 1.51992
lowerneck -2.82478 -4.27931 0.437928
upperneck -15.218 -4.31071 3.5696
head -4.44617 -1.80828 1.21329
rclavicle -1.11319e-014 9.54166e-015
rhumerus -61.4467 -21.0002 -48.7416
rradius 15.2153
rwrist 25.1515
rhand -6.36525 -50.9723
rfingers 7.12502
rthumb 19.4812 -80.0163
lclavicle -1.11319e-014 9.54166e-015
lhumerus -57.355 -9.96509 77.1347
lradius 26.0101
lwrist 0.0243175
lhand -22.4958 -13.013
lfingers 7.12502
lthumb 3.93004 16.9305
rfemur -63.9751 6.47326 15.6548
rtibia 36.6011
rfoot -30.0902 -13.1916
rtoes -36.647
lfemur -66.3629 -7.6122 -15.106
ltibia 39.5576
lfoot -20.365 3.14116
ltoes -38.9654
267
root 8.99751 15.6028 32.1442 -132.699 -2.35208 179.007
lowerback -14.7584 -1.72231 -2.59959
upperback 0.220718 -1.96558 0.5074
thorax 8.64438 -1.10801 1.57848
lowerneck -3.61014 -4.33108 -0.262336
upperneck -14.5951 -4.28995 4.7236
head -4.02645 -1.80085 1.6857
rclavicle 5.96354e-016 5.36719e-015
rhumerus -62.049 -20.5513 -48.7465
rradius 15.1746
rwrist 24.5352
rhand -6.91284 -51.1275
rfingers 7.12502
rthumb 18.9546 -80.224
lclavicle 5.96354e-016 5.36719e-015
lhumerus -58.6126 -10.0281 77.4006
lradius 26.6528
lwrist 0.406899
lhand -23.1253 -12.9937
lfingers 7.12502
lthumb 3.32214 16.9602
rfemur -65.5435 6.60782 15.6667
rtibia 37.924
rfoot -30.4563 -13.1677
rtoes -36.3438
lfemur -67.8703 -7.0113 -15.1093
ltibia 40.7968
lfoot -20.5147 2.82988
ltoes -37.8464
268
root 9.01087 15.5291 32.1681 -132.048 -2.10127 179.145
lowerback -14.3196 -1.65617 -2.73594
upperback 0.273963 -1.85731 0.483866
thorax 8.45179 -1.05727 1.6641
lowerneck -3.08932 -4.99388 0.000608049
upperneck -15.0989 -5.19633 4.52908
head -4.29545 -2.25904 1.62305
rclavicle -6.95746e-015 1.19271e-015
rhumerus -62.3791 -19.4196 -49.8861
rradius 15.3142
rwrist 22.8652
rhand -8.02415 -51.6316
rfingers 7.12502
rthumb 17.8856 -80.8292
lclavicle -6.95746e-015 1.19271e-015
lhumerus -59.6676 -9.85131 77.4259
lradius 26.9974
lwrist 0.392296
lhand -23.1179 -12.8972
lfingers 7.12502
lthumb 3.32923 17.0565
rfemur -67.2836 6.50111 15.8961
rtibia 39.6459
rfoot -30.9561 -12.8835
rtoes -36.3946
lfemur -69.4048 -6.33523 -15.2246
ltibia 42.1548
lfoot -20.7487 2.459
ltoes -36.7673
269
root 9.01852 15.4576 32.1911 -131.514 -1.88517 179.126
lowerback -13.7019 -1.62924 -2.99922
upperback 0.317683 -1.78884 0.485345
thorax 8.15406 -1.02977 1.84266
lowerneck -3.51057 -4.47726 0.15981
upperneck -15.7305 -4.36932 4.38384
head -4.4772 -1.79736 1.52851
rclavicle -3.97569e-015 6.36111e-015
rhumerus -62.9477 -18.3284 -50.8033
rradius 15.6717
rwrist 21.3423
rhand -8.25984 -51.6498
rfingers 7.12502
rthumb 17.6588 -80.8679
lclavicle -3.97569e-015 6.36111e-015
lhumerus -60.611 -9.55234 77.4815
lradius 27.1136
lwrist 0.192981
lhand -21.5912 -12.2515
lfingers 7.12502
lthumb 4.80352 17.674
rfemur -68.8753 6.16513 16.1218
rtibia 41.4572
rfoot -31.6036 -12.3735
rtoes -36.1088
lfemur -70.8038 -5.90769 -15.5378
ltibia 43.594
lfoot -21.0958 2.02433
ltoes -35.9607
270
root 9.01222 15.3788 32.2097 -131 -1.9297 179.09
lowerback -13.0558 -1.56016 -2.97231
upperback 0.297374 -1.71606 0.476072
thorax 7.76039 -0.986512 1.84662
lowerneck -3.56168 -4.33565 0.381218
upperneck -16.0352 -4.13886 4.22682
head -4.59564 -1.66906 1.43609
rclavicle -9.93923e-016 -6.95746e-015
rhumerus -64.0427 -17.8799 -50.8092
rradius 16.1025
rwrist 20.4795
rhand -8.24945 -51.7605
rfingers 7.12502
rthumb 17.6688 -80.9777
lclavicle -9.93923e-016 -6.95746e-015
lhumerus -61.7019 -9.55335 77.681
lradius 27.307
lwrist 0.160467
lhand -21.9632 -13.525
lfingers 7.12502
lthumb 4.44431 16.4084
rfemur -69.8487 5.90084 16.1721
rtibia 41.9413
rfoot -31.5465 -12.0252
rtoes -35.4482
lfemur -72.215 -5.8175 -15.7642
ltibia 45.0515
lfoot -21.4866 1.63535
ltoes -35.7
271
root 9.01093 15.3013 32.2231 -130.562 -1.72889 179.033
lowerback -12.3561 -1.63543 -2.93768
upperback 0.409146 -1.82616 0.382658
thorax 7.48582 -1.03126 1.72064
lowerneck -3.87905 -4.36836 0.341419
upperneck -16.2068 -4.1263 4.34151
head -4.59547 -1.64229 1.47625
rclavicle 3.77691e-015 -9.93923e-016
rhumerus -64.4901 -17.4205 -51.0938
rradius 16.3738
rwrist 19.857
rhand -8.5823 -52.0083
rfingers 7.12502
rthumb 17.3485 -81.2541
lclavicle 3.77691e-015 -9.93923e-016
lhumerus -62.6796 -9.02796 77.6317
lradius 27.5709
lwrist 0.394433
lhand -21.9869 -14.1978
lfingers 7.12502
lthumb 4.42144 15.7361
rfemur -71.6491 5.77632 16.1119
rtibia 44.3476
rfoot -32.477 -12.0058
rtoes -35.6301
lfemur -73.4303 -5.60903 -16.0427
ltibia 46.3153
lfoot -21.915 1.45919
ltoes -36.0472
272
root 9.00988 15.2199 32.2332 -130.133 -1.61352 178.937
lowerback -11.7895 -1.6785 -2.96881
upperback 0.531224 -1.88451 0.335662
thorax 7.29792 -1.05614 1.68948
lowerneck -3.86654 -4.49796 0.392279
upperneck -16.5866 -4.2603 4.27799
head -4.73994 -1.68969 1.45755
rclavicle -1.68967e-014 -7.15625e-015
rhumerus -65.2875 -17.5777 -50.4041
rradius 16.4262
rwrist 20.5836
rhand -8.21322 -51.6571
rfingers 7.12502
rthumb 17.7037 -80.8712
lclavicle -1.68967e-014 -7.15625e-015
lhumerus -63.6072 -8.64262 77.7317
lradius 27.8521
lwrist 0.449838
lhand -21.9493 -14.1823
lfingers 7.12502
lthumb 4.45769 15.7508
rfemur -72.7851 5.54047 16.1015
rtibia 45.3458
rfoot -32.6857 -11.8611
rtoes -35.9154
lfemur -74.6892 -5.48786 -16.3333
ltibia 47.72
lfoot -22.3971 1.3863
ltoes -37.2439
273
root 9.01094 15.1349 32.2445 -129.587 -1.41508 178.879
lowerback -11.3025 -1.64966 -3.03042
upperback 0.575676 -1.8435 0.244809
thorax 7.06569 -1.03337 1.64673
lowerneck -3.7402 -4.63921 0.519429
upperneck -16.9435 -4.42159 4.20353
head -4.90113 -1.76013 1.42567
rclavicle 5.96354e-015 1.19271e-014
rhumerus -66.5369 -18.5374 -48.4015
rradius 16.3145
rwrist 22.546
rhand -8.22585 -50.822
rfingers 7.12502
rthumb 17.6915 -80.0371
lclavicle 5.96354e-015 1.19271e-014
lhumerus -64.521 -8.39749 77.8379
lradius 28.0403
lwrist 0.462865
lhand -21.7338 -14.1493
lfingers 7.12502
lthumb 4.66584 15.7794
rfemur -74.1789 5.41658 16.0401
rtibia 46.719
rfoot -33.2426 -11.6329
rtoes -34.9359
lfemur -76.1526 -5.25875 -16.6504
ltibia 49.3024
lfoot -22.9071 1.46023
ltoes -38.4768
274
root 9.0127 15.0473 32.2553 -129.077 -1.19777 178.968
lowerback -10.7743 -1.57923 -3.00546
upperback 0.668041 -1.75927 0.16916
thorax 6.85638 -0.986566 1.57876
lowerneck -3.60476 -4.7882 0.748941
upperneck -17.8451 -4.5483 4.21428
head -4.6845 -1.83442 1.2579
rclavicle -1.66979e-014 -7.55382e-015
rhumerus -67.1204 -18.4505 -48.2602
rradius 16.5267
rwrist 21.7927
rhand -8.26679 -50.6308
rfingers 7.12502
rthumb 17.6521 -79.8495
lclavicle -1.66979e-014 -7.55382e-015
lhumerus -65.2953 -8.24351 78.1903
lradius 28.0968
lwrist 1.19453
lhand -22.0586 -14.3646
lfingers 7.12502
lthumb 4.35216 15.5707
rfemur -75.6038 5.4034 16.1371
rtibia 48.2472
rfoot -33.8637 -11.4548
rtoes -34.1609
lfemur -77.5951 -4.94043 -16.761
ltibia 50.8651
lfoot -23.4788 1.33058
ltoes -37.416
275
root 9.01225 14.9549 32.262 -128.659 -1.20591 179.132
lowerback -10.2021 -1.54687 -2.7904
upperback 0.827157 -1.7531 0.192868
thorax 6.69409 -0.972933 1.49507
lowerneck -3.80088 -4.92917 0.781227
upperneck -18.1749 -4.67675 4.26218
head -4.75192 -1.87485 1.26944
rclavicle -1.31198e-014 -1.31198e-014
rhumerus -67.0948 -17.3343 -50.1362
rradius 16.7401
rwrist 20.6979
rhand -7.84745 -50.5808
rfingers 7.12502
rthumb 18.0556 -79.7628
lclavicle -1.31198e-014 -1.31198e-014
lhumerus -66.017 -7.89477 78.5237
lradius 28.2326
lwrist 1.70088
lhand -22.4014 -14.546
lfingers 7.12502
lthumb 4.02118 15.3958
rfemur -76.8941 5.37746 16.4422
rtibia 49.7138
rfoot -34.3286 -11.5086
rtoes -34.7826
lfemur -78.9793 -4.71112 -16.6147
ltibia 52.4418
lfoot -24.0893 0.651035
ltoes -33.7015
276
root 9.01365 14.8629 32.2758 -128.264 -1.21028 179.277
lowerback -9.48382 -1.50907 -2.63089
upperback 0.807098 -1.73982 0.176811
thorax 6.25843 -0.955032 1.40781
lowerneck -3.32589 -5.0797 0.777795
upperneck -18.5841 -4.84966 4.35189
head -4.95122 -1.96713 1.3185
rclavicle 1.07344e-014 2.90226e-014
rhumerus -67.8317 -17.3412 -49.8073
rradius 16.6218
rwrist 21.5964
rhand -7.25522 -50.3284
rfingers 7.12502
rthumb 18.6253 -79.4567
lclavicle 1.07344e-014 2.90226e-014
lhumerus -67.019 -7.51162 78.5874
lradius 28.4155
lwrist 1.58237
lhand -22.4071 -14.7648
lfingers 7.12502
lthumb 4.01568 15.1771
rfemur -78.2027 5.43406 16.6273
rtibia 51.2025
rfoot -34.8241 -11.7616
rtoes -35.7621
lfemur -80.3865 -4.50484 -16.4411
ltibia 54.0482
lfoot -24.5793 0.130233
ltoes -30.7855
